<svg width="512" height="512" viewBox="0 0 680 680" xmlns="http://www.w3.org/2000/svg">
<rect width="680" height="680" rx="140" fill="#c0392b"/>
<rect width="680" height="680" rx="140" fill="#e74c3c" opacity="0.6"/>
<ellipse cx="340" cy="420" rx="200" ry="180" fill="#fff" opacity="0.95"/>
<ellipse cx="340" cy="260" rx="120" ry="30" fill="#fff" opacity="0.95"/>
<rect x="220" y="260" width="240" height="160" fill="#fff" opacity="0.95"/>
<ellipse cx="340" cy="420" rx="200" ry="180" fill="none" stroke="#c0392b" stroke-width="6"/>
<ellipse cx="340" cy="270" rx="100" ry="90" fill="#f8f8f8" stroke="#ddd" stroke-width="3"/>
<line x1="340" y1="192" x2="340" y2="205" stroke="#c0392b" stroke-width="4" stroke-linecap="round"/>
<line x1="375" y1="196" x2="370" y2="208" stroke="#999" stroke-width="2.5" stroke-linecap="round"/>
<line x1="406" y1="209" x2="398" y2="218" stroke="#999" stroke-width="2.5" stroke-linecap="round"/>
<line x1="305" y1="196" x2="310" y2="208" stroke="#999" stroke-width="2.5" stroke-linecap="round"/>
<line x1="274" y1="209" x2="282" y2="218" stroke="#999" stroke-width="2.5" stroke-linecap="round"/>
<line x1="420" y1="230" x2="410" y2="236" stroke="#999" stroke-width="2.5" stroke-linecap="round"/>
<line x1="260" y1="230" x2="270" y2="236" stroke="#999" stroke-width="2.5" stroke-linecap="round"/>
<line x1="340" y1="270" x2="380" y2="215" stroke="#c0392b" stroke-width="4" stroke-linecap="round"/>
<circle cx="340" cy="270" r="8" fill="#c0392b"/>
<circle cx="340" cy="270" r="4" fill="#fff"/>
<rect x="275" y="300" width="130" height="44" rx="8" fill="#fdecea" stroke="#e74c3c" stroke-width="2"/>
<text x="340" y="332" text-anchor="middle" font-family="sans-serif" font-size="26" font-weight="700" fill="#c0392b">62.0</text>
<text x="340" y="378" text-anchor="middle" font-family="sans-serif" font-size="22" font-weight="500" fill="#c0392b">kg</text>
<ellipse cx="340" cy="590" rx="160" ry="28" fill="#e74c3c" opacity="0.3"/>
<ellipse cx="340" cy="585" rx="155" ry="22" fill="#c0392b" opacity="0.5"/>
</svg>
